<svg version="1.1" id="Layer_1" xmlns="http://www.w3.org/2000/svg" xmlns:xlink="http://www.w3.org/1999/xlink" x="0px" y="0px"
	 width="100%" viewBox="0 0 496 496" enable-background="new 0 0 496 496" xml:space="preserve">
<path fill="#000000" opacity="1.000000" stroke="none" 
	d="
M128.124588,166.101028 
	C125.773659,168.897919 123.645142,171.419418 121.426147,174.048126 
	C116.971336,172.023529 113.954140,168.632584 110.508942,165.852844 
	C101.701225,158.746475 93.068573,151.419418 84.158287,144.445908 
	C81.004745,141.977814 80.908005,140.186127 83.505539,137.275116 
	C88.707291,131.445602 93.010941,124.805611 98.813065,119.520210 
	C113.310822,106.313576 136.388763,112.863182 141.597504,131.759125 
	C144.219650,141.271561 141.484665,149.828720 135.367294,157.380356 
	C133.063217,160.224640 130.689163,163.012222 128.124588,166.101028 
M99.525909,138.065598 
	C105.380463,143.993591 112.213867,148.767822 118.526894,154.155685 
	C119.505676,154.991028 120.519341,155.796707 122.097473,155.032578 
	C129.505081,151.445877 132.058365,139.367844 126.733551,132.780243 
	C118.358047,122.418465 104.936470,124.682213 99.525909,138.065598 
z"/>
<path fill="#000000" opacity="1.000000" stroke="none" 
	d="
M391.255157,392.829437 
	C379.680817,383.291504 368.333191,374.045105 357.122681,364.635254 
	C355.307953,363.112000 351.347626,361.712341 353.498444,358.636230 
	C355.818695,355.317841 357.350006,350.233093 363.111725,350.748535 
	C366.178497,338.712982 372.350525,333.323029 382.749268,333.661285 
	C392.132568,333.966553 402.407501,342.674561 404.139832,351.789825 
	C405.862274,360.853363 400.634277,368.883209 389.710510,373.311432 
	C394.252380,377.209290 398.594788,380.935913 403.126617,384.825134 
	C401.459595,388.465302 398.805023,390.997559 396.539856,393.781921 
	C394.577667,396.193878 393.068817,394.244202 391.255157,392.829437 
M389.733795,352.997345 
	C388.409973,350.805542 386.656128,349.018677 384.301208,348.019073 
	C381.251678,346.724609 378.136322,346.494568 375.315399,348.624146 
	C372.844666,350.489319 371.959351,353.082306 372.349487,356.127686 
	C373.019196,361.355164 379.043396,365.680511 384.479492,364.839539 
	C389.408020,364.077087 391.456909,359.998322 389.733795,352.997345 
z"/>
<path fill="#000000" opacity="1.000000" stroke="none" 
	d="
M108.130287,210.583344 
	C106.338463,218.582016 102.192154,224.368942 94.379440,225.927933 
	C85.412178,227.717316 77.079323,225.703018 70.727180,218.553848 
	C64.881927,211.975159 65.266960,200.920578 71.410233,194.328827 
	C72.168442,193.515244 73.232124,192.986374 74.510826,192.070038 
	C69.934319,189.366150 65.623589,188.680557 61.524200,187.541595 
	C58.079445,186.584534 56.926727,185.181656 58.011005,181.531723 
	C60.623043,172.739014 60.470734,172.725952 69.411606,175.422867 
	C81.833061,179.169662 94.263748,182.886169 106.701653,186.578003 
	C114.389671,188.859985 114.437202,188.840942 111.904358,196.675964 
	C111.162766,198.970001 111.176369,202.072906 107.166618,201.329910 
	C107.555679,204.643692 108.823936,207.321915 108.130287,210.583344 
M83.545227,211.147202 
	C90.108070,213.807922 94.754768,212.978195 97.222572,208.704910 
	C99.444771,204.856918 98.329048,200.518951 94.447891,197.916748 
	C89.687134,194.724823 83.173218,195.119507 80.423462,198.766464 
	C77.388313,202.791931 78.209717,206.769257 83.545227,211.147202 
z"/>
<path fill="#000000" opacity="1.000000" stroke="none" 
	d="
M397.092285,316.257385 
	C392.813995,317.075439 389.093414,318.626556 384.370300,318.645630 
	C385.414246,313.385651 385.814850,307.653778 389.618622,304.475586 
	C393.395050,301.320251 399.589691,302.797516 404.299011,300.286804 
	C404.641022,296.060394 401.360748,295.622406 398.689087,294.492706 
	C396.675262,293.641113 393.108765,293.922150 393.270142,291.140839 
	C393.485474,287.429779 394.837891,283.666351 397.057037,280.504974 
	C397.811005,279.430847 399.272980,280.296204 400.332031,280.640961 
	C415.663330,285.631836 430.981018,290.664551 446.305573,295.676239 
	C448.541504,296.407440 449.415192,297.551208 448.780609,300.144043 
	C446.375519,309.971466 446.213959,310.141327 436.649506,307.003937 
	C431.172241,305.207245 425.697327,303.403442 419.560883,301.953796 
	C424.994904,310.989899 430.327179,319.825867 422.031921,330.181061 
	C419.104492,327.294739 417.691589,323.234772 415.732513,319.588989 
	C412.051025,312.738037 412.125183,312.691620 404.763428,314.421021 
	C402.338379,314.990692 399.922455,315.599152 397.092285,316.257385 
z"/>
<path fill="#000000" opacity="1.000000" stroke="none" 
	d="
M235.626968,450.950867 
	C223.899033,449.457947 212.563568,447.891327 201.262360,446.107483 
	C196.709671,445.388885 198.738281,441.767517 198.905243,439.289673 
	C199.073853,436.787140 199.660477,434.208313 203.385712,434.903961 
	C208.279190,435.817749 213.230148,436.428040 218.116013,437.376770 
	C222.026703,438.136078 224.819351,437.883636 225.612839,432.986755 
	C226.380875,428.246826 224.236786,426.781769 220.072342,426.328735 
	C215.789139,425.862823 211.564224,424.858612 207.280609,424.400360 
	C203.232819,423.967285 203.348038,421.355652 204.083328,418.642761 
	C204.761246,416.141449 203.872025,412.062805 209.036011,413.251312 
	C213.554489,414.291168 218.201660,414.766968 222.786667,415.524109 
	C226.277725,416.100586 228.533813,415.415039 228.810638,411.170532 
	C229.046738,407.550385 230.083618,403.988220 230.641647,400.381104 
	C230.974411,398.230225 232.258163,397.621429 234.156708,397.856293 
	C236.132385,398.100677 238.085526,398.606232 240.064880,398.725250 
	C243.851395,398.952911 244.805191,401.001526 244.240082,404.416168 
	C242.696136,413.745361 241.342773,423.107361 239.698456,432.418304 
	C238.612946,438.564850 238.762848,444.969910 235.626968,450.950867 
z"/>
<path fill="#000000" opacity="1.000000" stroke="none" 
	d="
M83.312332,255.820694 
	C88.102432,255.850632 92.441971,256.069397 96.758965,255.848267 
	C101.176399,255.621933 102.900024,257.499603 102.325615,261.761139 
	C102.303566,261.924622 102.323479,262.093811 102.324554,262.260345 
	C102.374275,269.993744 102.374245,270.010559 94.725334,269.992920 
	C85.733261,269.972137 76.738327,269.767334 67.750435,269.941589 
	C63.140984,270.030945 60.938366,268.548859 61.600239,263.652771 
	C62.039925,260.400299 60.379425,256.465759 65.237183,254.931839 
	C62.357811,250.593674 60.346989,246.220200 61.071404,241.179184 
	C62.244892,233.013214 67.283623,228.534332 76.684799,228.005249 
	C83.819672,227.603699 90.998619,227.988831 98.157990,228.017456 
	C100.964653,228.028687 102.594078,229.181946 102.323814,232.231705 
	C102.294563,232.561691 102.325333,232.897415 102.334229,233.230316 
	C102.569878,242.056458 102.570000,242.060043 93.885132,242.033249 
	C89.722015,242.020401 85.557365,241.908707 81.396271,241.989471 
	C75.935661,242.095428 73.523430,243.999374 73.349258,248.107956 
	C73.172447,252.278641 75.983055,255.143600 80.856133,255.732635 
	C81.515129,255.812286 82.186325,255.790970 83.312332,255.820694 
z"/>
<path fill="#000000" opacity="1.000000" stroke="none" 
	d="
M286.799561,65.230515 
	C283.385437,74.795334 283.384705,74.798637 292.921356,76.945091 
	C295.515808,77.529030 298.111816,78.107430 300.714722,78.652039 
	C306.668518,79.897781 306.615265,80.234070 305.590393,86.356697 
	C304.926605,90.322220 302.963531,90.846962 299.703735,90.131607 
	C294.996246,89.098557 290.238953,88.267899 285.575073,87.070053 
	C282.858154,86.372261 281.565186,86.929649 281.092468,89.826424 
	C280.505157,93.425140 279.402679,96.939102 278.798767,100.536018 
	C278.270996,103.679367 276.766174,104.654144 273.638489,104.131393 
	C263.832184,102.492416 263.796021,102.559952 265.843353,92.886703 
	C268.458252,80.531647 271.205841,68.203827 273.705566,55.825756 
	C274.521820,51.783661 275.953491,50.300098 280.433960,51.453247 
	C289.440521,53.771294 298.579163,55.660912 307.749115,57.223820 
	C312.376801,58.012558 313.295471,59.832859 312.419006,64.264954 
	C311.469543,69.066193 309.302063,69.408279 305.111603,68.446388 
	C299.151642,67.078308 293.252838,65.188072 286.799561,65.230515 
z"/>
<path fill="#000000" opacity="1.000000" stroke="none" 
	d="
M122.952301,348.966248 
	C120.660889,350.927490 118.576904,352.588715 116.618179,354.386444 
	C112.738434,357.947266 112.227936,361.174835 114.927063,364.329803 
	C117.567810,367.416565 122.045761,367.919189 125.703453,365.097504 
	C129.779663,361.952911 133.728638,358.605438 137.449539,355.049652 
	C140.686264,351.956573 142.883270,351.887329 145.770508,355.694855 
	C151.311493,363.001953 151.634186,361.225830 144.889755,367.050262 
	C137.718521,373.243195 130.421860,379.293488 123.341721,385.588013 
	C120.736176,387.904449 118.872093,387.976868 116.901878,385.031830 
	C116.075981,383.797272 114.955681,382.761871 113.991356,381.617279 
	C112.205238,379.497284 110.115326,377.393829 114.348190,374.834595 
	C108.770721,373.967010 104.894920,371.923553 101.947655,368.262024 
	C96.807114,361.875671 96.899010,354.176910 102.827896,348.484741 
	C108.697243,342.849731 115.090530,337.762665 121.201698,332.375916 
	C122.934059,330.848938 124.388832,330.840179 125.837692,332.642548 
	C125.941307,332.771454 126.080070,332.871826 126.186256,332.999023 
	C133.601837,341.881561 134.423431,339.291168 122.952301,348.966248 
z"/>
<path fill="#000000" opacity="1.000000" stroke="none" 
	d="
M324.261627,117.889175 
	C314.310272,119.475571 306.687439,115.228699 304.289459,106.980064 
	C303.175537,103.148293 304.152527,99.685211 305.767578,96.376839 
	C308.977661,89.801193 312.511688,83.383163 315.694885,76.795197 
	C317.139160,73.806183 318.923676,73.320541 321.584045,74.996437 
	C321.724152,75.084694 321.879089,75.150261 322.029724,75.220810 
	C330.085297,78.994164 330.076996,78.989769 325.935944,86.986748 
	C324.100922,90.530510 322.178894,94.037445 320.531006,97.667603 
	C318.886200,101.290962 317.717651,105.065598 322.217072,107.679535 
	C325.617737,109.655167 329.732269,108.246407 332.253113,103.920578 
	C334.761780,99.615700 336.852631,95.067230 339.123596,90.623993 
	C341.865540,85.259132 341.772491,85.457893 348.660614,88.622635 
	C352.864258,90.553963 354.036530,92.479492 351.532257,96.907738 
	C346.951263,105.008408 343.014801,113.472626 338.775360,121.767761 
	C335.596619,127.987625 335.560577,127.998581 329.182434,124.631531 
	C326.530121,123.231392 322.944611,122.410912 324.261627,117.889175 
z"/>
<path fill="#000000" opacity="1.000000" stroke="none" 
	d="
M174.392303,378.740295 
	C180.518616,388.112640 180.189667,396.495209 173.614731,404.703674 
	C167.914169,411.820587 159.206467,414.023376 150.284134,410.605774 
	C140.400009,406.819763 133.799057,397.715485 134.387970,388.681122 
	C134.993027,379.398865 141.405731,371.239777 150.343887,369.239990 
	C160.171890,367.041046 167.759659,371.400848 174.392303,378.740295 
M160.620636,381.503387 
	C152.551819,380.307404 145.600571,387.157288 148.013016,393.992218 
	C149.233734,397.450775 151.741348,399.618134 155.466904,399.618530 
	C160.499771,399.619080 163.279572,396.368195 164.953140,392.052551 
	C166.647827,387.682434 165.351410,384.242065 160.620636,381.503387 
z"/>
<path fill="#000000" opacity="1.000000" stroke="none" 
	d="
M401.128143,203.875488 
	C411.249664,200.801056 416.749146,203.780029 419.401642,213.936935 
	C420.358490,217.600845 420.998291,221.347549 421.844818,225.349655 
	C425.939697,224.777878 426.859711,222.106110 426.474579,218.957581 
	C426.197174,216.689819 425.378876,214.412628 424.413971,212.318359 
	C421.190857,205.322678 421.523376,204.487762 429.658936,201.674835 
	C435.399628,209.345810 438.495453,217.860504 437.277008,227.626236 
	C436.533051,233.588898 432.312866,237.745499 425.631287,239.061630 
	C418.287842,240.508118 410.877686,241.613083 403.519440,242.988998 
	C400.819244,243.493896 399.127991,242.566727 398.935822,239.915665 
	C398.692627,236.560608 396.395081,233.236572 398.797699,229.777222 
	C399.795441,228.340637 398.248810,227.367218 397.607910,226.289978 
	C394.037598,220.288528 393.368469,214.135864 397.009338,207.238663 
	C398.677765,205.770294 399.902954,204.822891 401.128143,203.875488 
M410.578491,216.098724 
	C407.862793,214.622055 405.911713,215.763351 405.105835,218.303818 
	C403.969391,221.886337 405.624115,224.703232 408.561371,226.782990 
	C409.846039,227.692612 411.370789,228.078201 412.750885,227.169205 
	C414.073578,226.297989 413.787811,224.751282 413.433655,223.521576 
	C412.758331,221.176865 413.029938,218.503342 410.578491,216.098724 
z"/>
<path fill="#000000" opacity="1.000000" stroke="none" 
	d="
M177.743637,112.364616 
	C177.137207,121.901787 167.831238,131.050995 158.088211,132.255249 
	C148.221878,133.474716 139.517471,128.028137 135.752487,118.279190 
	C132.252441,109.216301 135.526810,99.817955 144.240677,93.915764 
	C154.396820,87.036667 164.390915,88.631142 172.025681,98.099274 
	C174.551880,101.232071 174.734497,103.331207 171.026886,105.668716 
	C164.981781,109.479927 159.176559,113.671631 153.238281,117.724510 
	C157.159821,121.832596 163.235519,121.088120 166.132599,115.202858 
	C169.132645,109.108421 172.901291,110.142220 177.743637,112.364616 
M147.398483,110.424789 
	C152.635895,110.368492 155.185471,105.932053 159.544235,103.817795 
	C156.814041,100.726082 154.214813,99.715874 151.149994,101.404099 
	C147.860458,103.216118 145.776459,105.797546 147.398483,110.424789 
z"/>
<path fill="#000000" opacity="1.000000" stroke="none" 
	d="
M332.470032,402.500366 
	C328.020111,397.134735 328.025574,397.142456 333.454865,393.287872 
	C338.982178,389.363617 344.497345,385.422180 350.148285,381.395325 
	C344.832764,377.556519 339.630707,379.176056 336.158081,385.530701 
	C334.992279,387.664032 334.190552,389.514740 331.108734,389.215576 
	C324.679626,388.591400 323.790955,387.269287 326.525543,381.422302 
	C330.595764,372.719604 341.521820,365.850800 349.711487,366.846222 
	C358.783081,367.948883 366.517212,375.287750 368.354828,384.536743 
	C370.144073,393.542450 365.933105,401.789795 356.979675,406.815338 
	C348.565216,411.538361 341.441589,410.716797 334.132172,404.170990 
	C333.637360,403.727875 333.188416,403.233521 332.470032,402.500366 
M348.079895,398.539917 
	C355.037140,398.191040 357.855042,394.363495 355.433411,388.038879 
	C351.300629,389.846436 347.899536,392.587341 344.708038,395.283813 
	C344.857605,397.360199 346.257019,397.724854 348.079895,398.539917 
z"/>
<path fill="#000000" opacity="1.000000" stroke="none" 
	d="
M92.113739,295.560120 
	C93.205086,299.393036 94.698517,298.328400 96.144844,296.267395 
	C98.483871,292.934296 97.532982,287.862030 93.937614,284.012756 
	C91.242973,281.127808 91.714188,276.383728 94.829414,273.912659 
	C96.229355,272.802216 97.373528,273.435089 98.434372,274.213379 
	C106.145805,279.870819 108.889137,287.879913 108.205315,296.974121 
	C107.604797,304.960419 103.136650,310.438446 95.471329,313.264282 
	C87.675407,316.138306 80.236725,315.774902 73.959152,310.119171 
	C67.218643,304.046387 65.432495,295.944977 67.063522,287.278961 
	C68.290886,280.757751 76.770744,274.042938 83.281960,273.330139 
	C86.352669,272.993958 86.500198,275.200623 87.012947,276.962769 
	C88.775810,283.021179 90.361702,289.131073 92.113739,295.560120 
M77.677803,290.463074 
	C75.106636,297.163879 78.337982,301.895142 84.998940,300.891022 
	C84.293831,296.544373 83.291000,292.300323 81.686859,288.300446 
	C79.862144,287.965485 78.955002,288.894104 77.677803,290.463074 
z"/>
<path fill="#000000" opacity="1.000000" stroke="none" 
	d="
M395.804718,174.810730 
	C388.250854,179.865128 382.177277,179.296188 376.461151,172.961960 
	C371.900787,167.908478 369.242218,161.901810 368.204590,155.119354 
	C367.602234,151.181885 369.683838,150.136398 372.929688,149.784317 
	C376.152679,149.434723 378.458344,149.812057 378.406799,153.994843 
	C378.363129,157.536575 379.731812,160.832672 381.725372,163.772491 
	C382.567108,165.013718 383.683472,166.282211 385.430603,165.318268 
	C386.868896,164.524704 386.602234,163.125580 386.303558,161.770706 
	C385.413391,157.732788 383.605377,153.927368 383.614807,149.654373 
	C383.635529,140.248703 392.686707,134.477371 400.962799,139.121170 
	C409.146912,143.713348 412.619812,151.557129 413.645691,160.584244 
	C414.012573,163.812943 411.336609,163.233948 409.528473,163.471909 
	C407.235962,163.773636 404.498627,165.276855 403.509125,161.384186 
	C402.695374,158.182953 402.435333,154.780884 400.552002,151.920700 
	C399.737793,150.684128 398.812103,149.089020 397.061523,149.828003 
	C395.358307,150.546997 395.664337,152.212280 396.083557,153.743729 
	C396.871796,156.623276 397.466705,159.561462 398.372070,162.401917 
	C399.808472,166.908508 399.057220,170.911789 395.804718,174.810730 
z"/>
<path fill="#000000" opacity="1.000000" stroke="none" 
	d="
M189.616211,110.300308 
	C181.529221,100.787735 173.667786,91.545090 165.828751,82.283485 
	C165.653687,82.076653 165.733124,81.654419 165.663284,81.082466 
	C168.515350,78.838036 172.155731,78.140549 175.539246,76.959457 
	C178.170837,76.040855 179.386078,78.305878 180.678253,79.994774 
	C184.983368,85.621727 189.244980,91.281967 193.644440,97.089394 
	C193.644440,89.931816 194.063019,83.342834 193.509476,76.836563 
	C193.081482,71.806152 194.471725,68.949020 199.499542,67.967224 
	C201.404160,67.595291 203.087234,66.126266 205.186249,66.789413 
	C206.524353,67.778313 206.199341,69.206299 206.193954,70.480225 
	C206.146088,81.791168 206.010269,93.101906 206.006989,104.412743 
	C206.006088,107.566185 205.312332,110.093674 201.793015,110.702682 
	C197.815811,111.390930 193.755417,116.250847 189.616211,110.300308 
z"/>
<path fill="#000000" opacity="1.000000" stroke="none" 
	d="
M403.427551,279.543762 
	C393.633423,267.776337 396.307007,250.805252 408.628784,244.620728 
	C417.538849,240.148605 430.042297,243.130997 435.512268,251.033142 
	C441.318573,259.421173 440.021881,273.412048 432.698944,279.938965 
	C431.386292,281.108948 429.974701,283.302856 427.668854,281.238220 
	C424.929260,278.785278 423.626099,273.112000 425.360229,270.640381 
	C427.616028,267.425140 428.931763,263.991760 426.423645,260.519196 
	C423.733765,256.794891 419.687103,255.751099 415.311310,256.717560 
	C408.901886,258.133179 406.566559,264.005249 410.549164,269.723541 
	C413.490173,273.946259 409.548340,275.667145 408.296875,278.332245 
	C407.437531,280.162323 406.038818,281.902985 403.427551,279.543762 
z"/>
<path fill="#000000" opacity="1.000000" stroke="none" 
	d="
M309.858704,403.311584 
	C308.773834,408.891663 309.439972,414.539093 310.123871,420.223297 
	C311.265503,429.711517 308.408203,432.802948 298.367615,433.257233 
	C297.096161,430.100006 297.730530,426.748077 297.696350,423.488800 
	C297.595215,413.839111 297.774139,404.185394 297.582611,394.538422 
	C297.518372,391.303040 299.216766,390.022980 301.803223,389.350128 
	C305.105499,388.491119 308.487976,384.566650 311.837006,388.136993 
	C320.595917,397.474518 328.986237,407.158020 337.497192,416.727020 
	C337.786865,417.052704 337.793732,417.629944 337.997345,418.305328 
	C335.017944,420.893402 331.203033,421.628754 327.691681,422.912415 
	C325.495850,423.715149 324.460510,421.678650 323.355042,420.291168 
	C318.898468,414.697754 314.494446,409.062469 309.858704,403.311584 
z"/>
<path fill="#000000" opacity="1.000000" stroke="none" 
	d="
M107.093323,308.216370 
	C109.057762,306.075989 110.733467,306.512268 112.579857,307.908875 
	C122.215202,315.197144 121.366478,327.417114 110.763664,333.177338 
	C107.839600,334.765961 104.835510,336.206757 101.901833,337.778290 
	C99.508797,339.060181 96.433273,339.713928 98.222107,343.891632 
	C99.184746,346.139832 96.505432,346.732788 94.969337,347.525696 
	C93.577827,348.244049 91.754936,349.833588 90.569290,347.879181 
	C88.483093,344.440277 86.167809,345.626984 83.907936,347.149750 
	C80.048538,349.750275 77.567726,348.963898 76.060432,344.577240 
	C75.263580,342.258179 73.384689,340.345398 73.382240,337.666382 
	C75.492012,335.173737 79.787315,335.239685 80.953819,332.300476 
	C82.166031,329.246063 78.217545,326.832733 78.340744,323.276489 
	C80.592583,321.748810 82.950241,318.717468 85.919220,320.549622 
	C88.080116,321.883118 89.125267,325.024658 90.775764,327.523499 
	C95.727516,325.923676 100.108330,323.540955 104.275772,320.883728 
	C109.092506,317.812500 104.249084,315.310974 103.368530,312.645874 
	C103.877739,310.637329 105.659279,309.787964 107.093323,308.216370 
z"/>
<path fill="#000000" opacity="1.000000" stroke="none" 
	d="
M401.261292,203.625748 
	C399.902954,204.822891 398.677765,205.770294 397.171936,206.897278 
	C390.011841,205.709229 388.812439,199.925644 387.524231,194.522690 
	C386.277313,189.293060 388.620941,184.490356 393.486542,182.036346 
	C397.928009,179.796265 402.612518,178.034531 407.207428,176.103760 
	C409.310150,175.220200 411.092438,174.459091 410.173248,171.419113 
	C409.218964,168.262955 412.443481,168.305634 414.112335,167.339096 
	C415.509644,166.529800 417.396301,165.615128 418.397675,167.783157 
	C419.994507,171.240555 422.337067,170.122879 424.559387,168.941437 
	C428.418793,166.889664 430.703674,167.331833 432.351379,171.932281 
	C435.475250,180.654068 435.227386,179.743347 428.236603,182.323547 
	C427.343353,182.653259 426.570404,183.308960 426.028412,183.639038 
	C424.961700,187.639740 432.192932,192.145874 424.511292,195.130966 
	C417.073914,198.021149 419.569183,189.807159 415.395935,187.822800 
	C411.259613,188.960724 406.617981,191.042587 402.034149,193.227524 
	C399.603455,194.386108 399.155273,196.324341 400.737183,198.556717 
	C401.813660,200.075882 403.108063,201.503113 401.261292,203.625748 
z"/>
<path fill="#000000" opacity="1.000000" stroke="none" 
	d="
M380.425781,93.505936 
	C382.489380,95.096062 383.407288,96.429878 381.600708,98.651176 
	C371.210785,111.426361 360.914459,124.277687 350.589569,137.105743 
	C349.369476,138.621658 348.143341,138.915146 346.300293,137.844467 
	C337.888855,132.957916 337.549866,131.275955 343.619232,123.769867 
	C351.883087,113.549767 360.117950,103.306000 368.323120,93.038727 
	C372.757050,87.490463 372.718353,87.457771 378.212646,91.715767 
	C378.870056,92.225243 379.512238,92.754311 380.425781,93.505936 
z"/>
<path fill="#000000" opacity="1.000000" stroke="none" 
	d="
M387.823456,129.830551 
	C380.569336,136.728912 373.465851,143.277664 366.624542,150.089722 
	C363.781311,152.920792 361.536072,153.467239 359.003937,150.002502 
	C358.419342,149.202560 357.712830,148.455566 356.941437,147.834427 
	C353.260315,144.870316 353.974304,142.654968 357.330902,139.590088 
	C368.025726,129.824707 378.363037,119.668091 388.858612,109.683823 
	C390.284729,108.327164 391.469482,106.627335 393.684937,106.007973 
	C396.917450,107.779991 398.867249,110.983078 401.315063,113.641281 
	C403.159271,115.644020 401.267639,116.939392 399.983276,118.182350 
	C396.034546,122.003677 392.050293,125.788277 387.823456,129.830551 
z"/>
<path fill="#000000" opacity="1.000000" stroke="none" 
	d="
M187.845551,404.813263 
	C189.670898,400.119019 191.458725,395.807983 193.016739,391.415436 
	C193.916504,388.878754 195.213745,388.135040 197.893875,388.915497 
	C207.249023,391.639740 207.533340,391.987762 204.116638,401.003998 
	C200.930176,409.412628 197.429810,417.707336 194.444122,426.184753 
	C193.068619,430.090332 191.033035,430.773773 187.794113,428.845490 
	C184.914261,427.130951 179.408325,428.062408 180.753387,421.873016 
	C177.367249,421.957367 174.254837,423.671539 170.868607,422.594879 
	C168.697540,421.904602 167.925461,421.034546 168.577240,418.647644 
	C170.347565,412.164551 171.332916,411.293610 178.176163,411.673828 
	C183.077179,411.946106 185.966690,409.431244 187.845551,404.813263 
z"/>
<path fill="#000000" opacity="1.000000" stroke="none" 
	d="
M232.417252,79.462677 
	C231.472107,68.402786 230.651596,57.796791 229.725601,47.200020 
	C229.400864,43.483898 231.392090,42.602314 234.550873,42.669090 
	C237.409561,42.729523 240.083221,42.243896 240.384048,46.666950 
	C241.748062,66.722366 243.356308,86.761780 244.990219,106.797691 
	C245.293549,110.517189 242.940353,110.916008 240.345428,111.092133 
	C237.778091,111.266380 234.870529,112.061211 234.603439,107.764473 
	C234.026031,98.475357 233.215546,89.200745 232.417252,79.462677 
z"/>
<path fill="#000000" opacity="1.000000" stroke="none" 
	d="
M270.838562,415.445435 
	C272.060699,427.805176 273.252014,439.709534 274.250427,451.630066 
	C274.703949,457.044952 273.565399,457.988617 268.214935,458.222565 
	C265.250214,458.352173 263.985901,457.159637 263.739227,454.265594 
	C262.058990,434.550507 260.347382,414.837891 258.545074,395.133698 
	C258.264130,392.062408 258.473724,389.882874 262.317352,389.695343 
	C265.760071,389.527374 268.622131,389.616669 268.938324,394.138062 
	C269.425018,401.098633 270.121521,408.044525 270.838562,415.445435 
z"/>
</svg>